<svg width="284" height="88" viewBox="0 0 284 88" fill="none" xmlns="http://www.w3.org/2000/svg">
<g filter="url(#filter0_d)">
<rect x="4" width="276" height="80" fill="black"/>
<path d="M111.908 29.285V32.726H100.993V40.311H109.503V43.752H100.993V55H96.775V29.285H111.908ZM114.411 44.714C114.411 42.6667 114.83 40.8537 115.669 39.275C116.532 37.6963 117.692 36.4753 119.147 35.612C120.627 34.724 122.255 34.28 124.031 34.28C125.634 34.28 127.028 34.6007 128.212 35.242C129.421 35.8587 130.383 36.6357 131.098 37.573V34.613H135.353V55H131.098V51.966C130.383 52.928 129.408 53.7297 128.175 54.371C126.942 55.0123 125.536 55.333 123.957 55.333C122.206 55.333 120.602 54.889 119.147 54.001C117.692 53.0883 116.532 51.8303 115.669 50.227C114.83 48.599 114.411 46.7613 114.411 44.714ZM131.098 44.788C131.098 43.382 130.802 42.161 130.21 41.125C129.643 40.089 128.89 39.2997 127.953 38.757C127.016 38.2143 126.004 37.943 124.919 37.943C123.834 37.943 122.822 38.2143 121.885 38.757C120.948 39.275 120.183 40.052 119.591 41.088C119.024 42.0993 118.74 43.308 118.74 44.714C118.74 46.12 119.024 47.3533 119.591 48.414C120.183 49.4747 120.948 50.2887 121.885 50.856C122.847 51.3987 123.858 51.67 124.919 51.67C126.004 51.67 127.016 51.3987 127.953 50.856C128.89 50.3133 129.643 49.524 130.21 48.488C130.802 47.4273 131.098 46.194 131.098 44.788ZM145.111 27.62V55H140.893V27.62H145.111ZM149.243 44.714C149.243 42.6667 149.662 40.8537 150.501 39.275C151.364 37.6963 152.524 36.4753 153.979 35.612C155.459 34.724 157.087 34.28 158.863 34.28C160.466 34.28 161.86 34.6007 163.044 35.242C164.253 35.8587 165.215 36.6357 165.93 37.573V34.613H170.185V55H165.93V51.966C165.215 52.928 164.24 53.7297 163.007 54.371C161.774 55.0123 160.368 55.333 158.789 55.333C157.038 55.333 155.434 54.889 153.979 54.001C152.524 53.0883 151.364 51.8303 150.501 50.227C149.662 48.599 149.243 46.7613 149.243 44.714ZM165.93 44.788C165.93 43.382 165.634 42.161 165.042 41.125C164.475 40.089 163.722 39.2997 162.785 38.757C161.848 38.2143 160.836 37.943 159.751 37.943C158.666 37.943 157.654 38.2143 156.717 38.757C155.78 39.275 155.015 40.052 154.423 41.088C153.856 42.0993 153.572 43.308 153.572 44.714C153.572 46.12 153.856 47.3533 154.423 48.414C155.015 49.4747 155.78 50.2887 156.717 50.856C157.679 51.3987 158.69 51.67 159.751 51.67C160.836 51.67 161.848 51.3987 162.785 50.856C163.722 50.3133 164.475 49.524 165.042 48.488C165.634 47.4273 165.93 46.194 165.93 44.788ZM183.791 44.825L193.189 55H187.491L179.943 46.231V55H175.725V27.62H179.943V43.53L187.343 34.613H193.189L183.791 44.825Z" fill="white"/>
</g>
<defs>
<filter id="filter0_d" x="0" y="0" width="284" height="88" filterUnits="userSpaceOnUse" color-interpolation-filters="sRGB">
<feFlood flood-opacity="0" result="BackgroundImageFix"/>
<feColorMatrix in="SourceAlpha" type="matrix" values="0 0 0 0 0 0 0 0 0 0 0 0 0 0 0 0 0 0 127 0"/>
<feOffset dy="4"/>
<feGaussianBlur stdDeviation="2"/>
<feColorMatrix type="matrix" values="0 0 0 0 0 0 0 0 0 0 0 0 0 0 0 0 0 0 0.25 0"/>
<feBlend mode="normal" in2="BackgroundImageFix" result="effect1_dropShadow"/>
<feBlend mode="normal" in="SourceGraphic" in2="effect1_dropShadow" result="shape"/>
</filter>
</defs>
</svg>
