<?xml version="1.0" encoding="iso-8859-1"?>
<!-- Generator: Adobe Illustrator 19.0.0, SVG Export Plug-In . SVG Version: 6.00 Build 0)  -->
<svg version="1.1" id="Capa_1" xmlns="http://www.w3.org/2000/svg" xmlns:xlink="http://www.w3.org/1999/xlink" x="0px" y="0px"
	 viewBox="0 0 480.275 480.275" style="enable-background:new 0 0 480.275 480.275;" xml:space="preserve">
<g>
	<g>
		<path style="fill:#fcba04;" d="M472.275,308.137h-96.408c-4.229-74.89-68.367-132.172-143.257-127.943c-68.983,3.895-124.048,58.96-127.943,127.943
			H8.275c-4.418,0-8,3.582-8,8s3.582,8,8,8h464c4.418,0,8-3.582,8-8S476.693,308.137,472.275,308.137z M120.667,308.137
			c4.235-62.968,56.498-111.907,119.608-112c63.104,0.102,115.358,49.039,119.592,112H120.667z"/>
	</g>
</g>
<g>
	<g>
		<path style="fill:#fcba04;" d="M368.275,340.137h-264c-4.418,0-8,3.582-8,8s3.582,8,8,8h264c4.418,0,8-3.582,8-8S372.693,340.137,368.275,340.137z"/>
	</g>
</g>
<g>
	<g>
		<path style="fill:#fcba04;" d="M344.275,372.137h-216c-4.418,0-8,3.582-8,8s3.582,8,8,8h216c4.418,0,8-3.582,8-8S348.693,372.137,344.275,372.137z"/>
	</g>
</g>
<g>
	<g>
		<path style="fill:#fcba04;" d="M320.275,404.137h-168c-4.418,0-8,3.582-8,8s3.582,8,8,8h168c4.418,0,8-3.582,8-8S324.693,404.137,320.275,404.137z"/>
	</g>
</g>
<g>
	<g>
		<path style="fill:#fcba04;" d="M288.275,436.137h-104c-4.418,0-8,3.582-8,8s3.582,8,8,8h104c4.418,0,8-3.582,8-8S292.693,436.137,288.275,436.137z"/>
	</g>
</g>
<g>
	<g>
		<path style="fill:#fcba04;" d="M88.275,284.137h-80c-4.418,0-8,3.582-8,8s3.582,8,8,8h80c4.418,0,8-3.582,8-8S92.693,284.137,88.275,284.137z"/>
	</g>
</g>
<g>
	<g>
		<path style="fill:#fcba04;" d="M99.556,228.824c-0.179-0.073-0.361-0.139-0.545-0.199l-88-32c-4.094-1.662-8.76,0.31-10.421,4.404
			c-1.662,4.094,0.31,8.76,4.404,10.421c0.179,0.073,0.361,0.139,0.545,0.199l88,32c4.094,1.662,8.76-0.31,10.421-4.404
			C105.622,235.151,103.65,230.485,99.556,228.824z"/>
	</g>
</g>
<g>
	<g>
		<path style="fill:#fcba04;" d="M183.627,144.985l-24-56c-1.799-4.036-6.528-5.849-10.564-4.05c-3.954,1.763-5.789,6.351-4.14,10.354l24,56
			c1.261,2.941,4.152,4.848,7.352,4.848c1.084,0.005,2.158-0.216,3.152-0.648C183.487,153.748,185.367,149.046,183.627,144.985z"/>
	</g>
</g>
<g>
	<g>
		<path style="fill:#fcba04;" d="M323.427,84.785c-4.06-1.74-8.763,0.14-10.504,4.2l-24,56c-1.74,4.06,0.14,8.763,4.2,10.504
			c0.995,0.432,2.068,0.652,3.152,0.648c3.2,0,6.091-1.907,7.352-4.848l24-56C329.367,91.229,327.487,86.526,323.427,84.785z"/>
	</g>
</g>
<g>
	<g>
		<path style="fill:#fcba04;" d="M479.291,184.305c-2.116-3.879-6.977-5.308-10.856-3.192l-88,48c-3.879,2.115-5.31,6.974-3.195,10.853
			c1.403,2.574,4.103,4.175,7.035,4.171c1.336,0.001,2.652-0.335,3.824-0.976l88-48
			C479.978,193.045,481.407,188.185,479.291,184.305z"/>
	</g>
</g>
<g>
	<g>
		<path style="fill:#fcba04;" d="M141.931,182.481l-80-80c-3.178-3.07-8.242-2.982-11.312,0.196c-2.994,3.1-2.994,8.015,0,11.116l80,80
			c3.178,3.069,8.243,2.981,11.312-0.197C144.925,190.496,144.925,185.581,141.931,182.481z"/>
	</g>
</g>
<g>
	<g>
		<path style="fill:#fcba04;" d="M240.275,28.137c-4.418,0-8,3.582-8,8v104c0,4.418,3.582,8,8,8s8-3.582,8-8v-104
			C248.275,31.719,244.693,28.137,240.275,28.137z"/>
	</g>
</g>
<g>
	<g>
		<path style="fill:#fcba04;" d="M429.931,102.481c-3.124-3.123-8.188-3.123-11.312,0l-80,80c-3.178,3.07-3.266,8.134-0.196,11.312
			c3.07,3.178,8.134,3.266,11.312,0.196c0.067-0.064,0.132-0.13,0.196-0.196l80-80C433.054,110.669,433.054,105.605,429.931,102.481
			z"/>
	</g>
</g>
<g>
	<g>
		<path style="fill:#fcba04;" d="M472.275,284.137h-80c-4.418,0-8,3.582-8,8s3.582,8,8,8h80c4.418,0,8-3.582,8-8S476.693,284.137,472.275,284.137z"/>
	</g>
</g>
<g>
</g>
<g>
</g>
<g>
</g>
<g>
</g>
<g>
</g>
<g>
</g>
<g>
</g>
<g>
</g>
<g>
</g>
<g>
</g>
<g>
</g>
<g>
</g>
<g>
</g>
<g>
</g>
<g>
</g>
</svg>
