<?xml version="1.0" encoding="iso-8859-1"?>
<!-- Generator: Adobe Illustrator 19.0.0, SVG Export Plug-In . SVG Version: 6.00 Build 0)  -->
<svg version="1.1" id="Capa_1" xmlns="http://www.w3.org/2000/svg" xmlns:xlink="http://www.w3.org/1999/xlink" x="0px" y="0px"
	 viewBox="0 0 512.043 512.043" style="enable-background:new 0 0 512.043 512.043;" xml:space="preserve">
<g>
	<g transform="translate(10 11)">
		<g>
			<path style="fill:#607D8B;" d="M211.888,440.908v17.425c0,18.851,15.282,34.133,34.133,34.133s34.133-15.282,34.133-34.133
				v-17.425H211.888z"/>
			<path style="fill:#607D8B;" d="M203.355,364.467h85.333c4.713,0,8.533,3.821,8.533,8.533v76.8c0,4.713-3.82,8.533-8.533,8.533
				h-85.333c-4.713,0-8.533-3.82-8.533-8.533V373C194.821,368.287,198.642,364.467,203.355,364.467z"/>
		</g>
		<path style="fill:#CFD8DC;" d="M203.355,364.467h59.733c4.713,0,8.533,3.821,8.533,8.533v76.8c0,4.713-3.82,8.533-8.533,8.533
			h-59.733c-4.713,0-8.533-3.82-8.533-8.533V373C194.821,368.287,198.642,364.467,203.355,364.467z"/>
		<path style="fill:#F57C00;" d="M356.955,193.8c0.004,17.985-4.359,35.701-12.715,51.627c-6.88,11.122-14.855,21.528-23.808,31.061
			c-20.776,24.735-32.14,56.017-32.085,88.32h-84.651c0.055-32.303-11.31-63.585-32.085-88.32
			c-8.953-9.533-16.928-19.939-23.808-31.061c-17.01-32.374-16.971-71.051,0.103-103.39s48.99-54.187,85.316-58.402
			c4.247-0.516,8.522-0.772,12.8-0.768C307.273,82.904,356.917,132.549,356.955,193.8z"/>
		<path style="fill:#FF9801;" d="M331.355,193.8c0.004,17.985-4.359,35.701-12.715,51.627c-6.88,11.122-14.855,21.528-23.808,31.061
			c-20.776,24.735-32.14,56.017-32.085,88.32h-59.051c0.055-32.303-11.31-63.585-32.085-88.32
			c-8.953-9.533-16.928-19.939-23.808-31.061c-17.01-32.374-16.971-71.051,0.103-103.39s48.99-54.187,85.316-58.402
			C289.15,90.131,331.341,137.495,331.355,193.8z"/>
	</g>
	<g>
		<path d="M256.021,85.333c-41.843,0.014-80.632,21.912-102.262,57.731s-22.951,80.342-3.483,117.381
			c5.173,9.055,11.378,17.479,18.492,25.105c2.108,2.441,4.267,4.873,6.263,7.364c17.96,21.547,28.441,48.342,29.867,76.356
			c-5.302,3.012-8.587,8.631-8.61,14.729h-8.533c-4.713,0-8.533,3.82-8.533,8.533s3.821,8.533,8.533,8.533h8.533v8.533h-8.533
			c-4.713,0-8.533,3.82-8.533,8.533s3.821,8.533,8.533,8.533h8.533v8.533h-8.533c-4.713,0-8.533,3.821-8.533,8.533
			c0,4.713,3.821,8.533,8.533,8.533h8.533v8.533c0,9.426,7.641,17.067,17.067,17.067h0.853
			c4.038,19.885,21.522,34.176,41.813,34.176s37.775-14.291,41.813-34.176h0.853c9.426,0,17.067-7.641,17.067-17.067v-8.533h8.533
			c4.713,0,8.533-3.821,8.533-8.533c0-4.713-3.821-8.533-8.533-8.533h-8.533v-8.533h8.533c4.713,0,8.533-3.82,8.533-8.533
			s-3.821-8.533-8.533-8.533h-8.533v-8.533h8.533c4.713,0,8.533-3.82,8.533-8.533S329.001,384,324.288,384h-8.533
			c-0.022-6.096-3.303-11.714-8.602-14.729c1.429-28.014,11.91-54.807,29.867-76.356c2.048-2.492,4.164-4.924,6.272-7.364
			c7.113-7.626,13.319-16.05,18.492-25.105c19.496-37.039,18.186-81.58-3.453-117.409
			C336.691,107.208,297.878,85.317,256.021,85.333z M256.021,494.933c-10.846-0.013-20.511-6.846-24.141-17.067h48.282
			C276.533,488.087,266.867,494.92,256.021,494.933z M290.155,460.8h-76.8v-76.51c0.128,0,0.23,0.068,0.358,0.068
			c0.603-0.055,1.198-0.175,1.775-0.358h81.067c0.577,0.183,1.172,0.303,1.775,0.358c0.128,0,0.23-0.068,0.358-0.068v8.243V460.8
			H290.155z M346.662,252.493c-4.575,7.895-10.041,15.239-16.29,21.888c-2.202,2.56-4.412,5.12-6.554,7.68
			c-19.976,23.982-31.77,53.718-33.664,84.873h-68.267c-1.892-31.143-13.677-60.868-33.638-84.847
			c-2.142-2.611-4.352-5.163-6.554-7.68c-6.252-6.65-11.717-13.997-16.29-21.897c-22.647-43.085-11.835-96.158,25.862-126.95
			s91.861-30.792,129.558,0s48.509,83.865,25.862,126.95L346.662,252.493z"/>
		<path d="M264.555,57.003V8.533c0-4.713-3.821-8.533-8.533-8.533c-4.713,0-8.533,3.821-8.533,8.533v48.469
			c0,4.713,3.821,8.533,8.533,8.533C260.734,65.536,264.555,61.715,264.555,57.003z"/>
		<path d="M187.755,83.823c3.047-0.003,5.861-1.631,7.384-4.27c1.522-2.64,1.521-5.891-0.002-8.53l-17.067-29.559
			c-2.372-4.047-7.566-5.42-11.628-3.074c-4.062,2.345-5.47,7.53-3.151,11.608l17.067,29.559
			C181.882,82.199,184.703,83.826,187.755,83.823z"/>
		<path d="M133.517,132.659c2.642,1.524,5.896,1.524,8.537-0.002c2.641-1.526,4.267-4.344,4.267-7.394
			c-0.001-3.05-1.629-5.868-4.27-7.392l-29.559-17.067c-2.642-1.524-5.896-1.524-8.537,0.002c-2.641,1.526-4.267,4.344-4.267,7.394
			s1.629,5.868,4.27,7.392L133.517,132.659z"/>
		<path d="M119.488,196.267c0-4.713-3.821-8.533-8.533-8.533h-51.2c-4.713,0-8.533,3.821-8.533,8.533s3.821,8.533,8.533,8.533h51.2
			C115.668,204.8,119.488,200.98,119.488,196.267z"/>
		<path d="M123.755,265.677l-29.559,17.067c-2.662,1.514-4.309,4.337-4.316,7.399s1.628,5.893,4.283,7.418
			c2.655,1.525,5.924,1.511,8.566-0.038l29.559-17.067c2.662-1.513,4.309-4.337,4.316-7.399c0.007-3.062-1.628-5.893-4.283-7.418
			C129.665,264.114,126.396,264.128,123.755,265.677z"/>
		<path d="M324.288,83.823c3.052,0.003,5.873-1.624,7.398-4.267l17.067-29.559c2.318-4.078,0.911-9.262-3.151-11.608
			c-4.062-2.345-9.256-0.972-11.628,3.074l-17.067,29.559c-1.524,2.639-1.524,5.89-0.002,8.53
			C318.427,82.192,321.241,83.82,324.288,83.823z"/>
		<path d="M374.268,133.803c1.498,0.003,2.971-0.391,4.267-1.143l29.559-17.067c2.642-1.524,4.269-4.342,4.27-7.392
			c0.001-3.05-1.626-5.869-4.267-7.394c-2.641-1.526-5.895-1.526-8.537-0.002l-29.559,17.067c-3.354,1.927-4.991,5.87-3.991,9.606
			C367.011,131.213,370.4,133.809,374.268,133.803z"/>
		<path d="M452.288,187.733h-51.2c-4.713,0-8.533,3.821-8.533,8.533s3.82,8.533,8.533,8.533h51.2c4.713,0,8.533-3.821,8.533-8.533
			S457.001,187.733,452.288,187.733z"/>
		<path d="M417.848,282.743l-29.559-17.067c-2.642-1.549-5.911-1.563-8.566-0.038s-4.29,4.356-4.283,7.418
			c0.007,3.062,1.654,5.886,4.316,7.399l29.559,17.067c4.078,2.318,9.262,0.911,11.608-3.151
			C423.267,290.31,421.894,285.116,417.848,282.743z"/>
		<path d="M238.699,279.535c-0.68-3.02-2.942-5.436-5.911-6.311s-6.18-0.075-8.39,2.093c-2.21,2.168-3.072,5.363-2.254,8.348
			l8.533,34.133c0.948,3.8,4.361,6.467,8.277,6.468c0.702-0.001,1.401-0.087,2.082-0.256c4.567-1.145,7.343-5.774,6.204-10.342
			L238.699,279.535z"/>
		<path d="M283.695,273.323c-2.196-0.55-4.521-0.204-6.463,0.961c-1.941,1.165-3.34,3.054-3.888,5.251l-8.533,34.133
			c-1.14,4.569,1.637,9.197,6.204,10.342c0.678,0.168,1.375,0.254,2.074,0.256c3.913-0.005,7.322-2.671,8.269-6.468l8.533-34.133
			C291.03,279.099,288.259,274.472,283.695,273.323z"/>
	</g>
</g>
<g>
</g>
<g>
</g>
<g>
</g>
<g>
</g>
<g>
</g>
<g>
</g>
<g>
</g>
<g>
</g>
<g>
</g>
<g>
</g>
<g>
</g>
<g>
</g>
<g>
</g>
<g>
</g>
<g>
</g>
</svg>
